<svg width="806" height="504" viewBox="0 0 806 504" fill="none" xmlns="http://www.w3.org/2000/svg">
<rect width="805.929" height="504" rx="2" fill="white"/>
<rect x="0.5" y="0.5" width="804.929" height="503" rx="1.5" stroke="black" stroke-opacity="0.1"/>
<rect x="287.429" y="148.5" width="412" height="249" rx="8.5" fill="#F9FAFA"/>
<rect x="287.429" y="148.5" width="412" height="249" rx="8.5" stroke="#333638" stroke-width="3" stroke-linecap="round"/>
<rect x="100.5" y="144.5" width="104" height="259" rx="4.5" stroke="#7B61FF" stroke-dasharray="10 5"/>
<rect x="115" y="159" width="75" height="70" fill="#F9FAFA"/>
<rect x="115" y="159" width="75" height="70" stroke="#F9FAFA" stroke-width="10"/>
<mask id="path-7-inside-1_202_332" fill="white">
<path fill-rule="evenodd" clip-rule="evenodd" d="M184.287 207.589C184.287 207.587 184.287 207.585 184.287 207.584V173.019C184.288 172.754 184.236 172.491 184.136 172.245C184.036 172 183.888 171.777 183.702 171.589C183.515 171.401 183.294 171.253 183.05 171.152C182.806 171.05 182.545 170.999 182.281 171H123.126C122.863 170.999 122.602 171.05 122.358 171.152C122.114 171.253 121.893 171.401 121.706 171.589C121.52 171.777 121.372 172 121.272 172.245C121.171 172.491 121.12 172.754 121.121 173.019V207.495L114.937 218.872C114.702 219.254 114.558 219.708 114.522 220.184C114.485 220.661 114.557 221.14 114.729 221.569C114.902 221.998 115.167 222.359 115.497 222.611C115.827 222.864 116.207 222.998 116.595 222.999H188.842C189.245 223.013 189.643 222.881 189.987 222.621C190.33 222.361 190.605 221.983 190.778 221.534C190.95 221.084 191.013 220.583 190.958 220.09C190.904 219.598 190.734 219.135 190.47 218.759L184.287 207.589Z"/>
</mask>
<path fill-rule="evenodd" clip-rule="evenodd" d="M184.287 207.589C184.287 207.587 184.287 207.585 184.287 207.584V173.019C184.288 172.754 184.236 172.491 184.136 172.245C184.036 172 183.888 171.777 183.702 171.589C183.515 171.401 183.294 171.253 183.05 171.152C182.806 171.05 182.545 170.999 182.281 171H123.126C122.863 170.999 122.602 171.05 122.358 171.152C122.114 171.253 121.893 171.401 121.706 171.589C121.52 171.777 121.372 172 121.272 172.245C121.171 172.491 121.12 172.754 121.121 173.019V207.495L114.937 218.872C114.702 219.254 114.558 219.708 114.522 220.184C114.485 220.661 114.557 221.14 114.729 221.569C114.902 221.998 115.167 222.359 115.497 222.611C115.827 222.864 116.207 222.998 116.595 222.999H188.842C189.245 223.013 189.643 222.881 189.987 222.621C190.33 222.361 190.605 221.983 190.778 221.534C190.95 221.084 191.013 220.583 190.958 220.09C190.904 219.598 190.734 219.135 190.47 218.759L184.287 207.589Z" fill="#F2F2F3"/>
<path d="M184.287 207.589H182.287V208.106L182.537 208.558L184.287 207.589ZM184.287 173.019L182.287 173.011V173.019H184.287ZM184.136 172.245L185.987 171.488L185.987 171.488L184.136 172.245ZM183.702 171.589L185.121 170.18L185.121 170.18L183.702 171.589ZM183.05 171.152L182.284 172.999L182.284 172.999L183.05 171.152ZM182.281 171V173L182.289 173L182.281 171ZM123.126 171L123.119 173H123.126V171ZM122.358 171.152L123.124 172.999L123.124 172.999L122.358 171.152ZM121.706 171.589L120.287 170.18L120.287 170.18L121.706 171.589ZM121.272 172.245L123.123 173.003L123.123 173.003L121.272 172.245ZM121.121 173.019H123.121L123.121 173.011L121.121 173.019ZM121.121 207.495L122.878 208.451L123.121 208.004V207.495H121.121ZM114.937 218.872L116.64 219.921L116.668 219.875L116.694 219.828L114.937 218.872ZM116.595 222.999L116.59 224.999H116.595V222.999ZM188.842 222.999L188.91 221L188.876 220.999H188.842V222.999ZM190.958 220.09L192.946 219.87L192.946 219.87L190.958 220.09ZM190.47 218.759L188.72 219.728L188.772 219.822L188.834 219.909L190.47 218.759ZM186.287 207.589C186.287 207.59 186.287 207.592 186.287 207.59C186.287 207.59 186.287 207.587 186.287 207.584H182.287C182.287 207.582 182.287 207.581 182.287 207.582C182.287 207.582 182.287 207.586 182.287 207.589H186.287ZM186.287 207.584V173.019H182.287V207.584H186.287ZM186.287 173.027C186.289 172.5 186.187 171.977 185.987 171.488L182.285 173.002C182.286 173.005 182.287 173.008 182.287 173.011L186.287 173.027ZM185.987 171.488C185.787 171 185.493 170.555 185.121 170.18L182.282 172.998C182.283 172.999 182.284 173 182.285 173.003L185.987 171.488ZM185.121 170.18C184.748 169.805 184.305 169.507 183.816 169.304L182.284 172.999C182.282 172.998 182.282 172.998 182.282 172.998L185.121 170.18ZM183.816 169.304C183.327 169.101 182.803 168.998 182.273 169L182.289 173C182.287 173 182.285 173 182.284 172.999L183.816 169.304ZM182.281 169H123.126V173H182.281V169ZM123.134 169C122.605 168.998 122.08 169.101 121.592 169.304L123.124 172.999C123.123 173 123.121 173 123.119 173L123.134 169ZM121.592 169.304C121.103 169.507 120.66 169.805 120.287 170.18L123.125 172.998C123.126 172.998 123.125 172.998 123.124 172.999L121.592 169.304ZM120.287 170.18C119.915 170.555 119.62 171 119.421 171.488L123.123 173.003C123.124 173 123.125 172.999 123.125 172.998L120.287 170.18ZM119.421 171.488C119.221 171.977 119.119 172.5 119.121 173.027L123.121 173.011C123.121 173.008 123.122 173.005 123.123 173.003L119.421 171.488ZM119.121 173.019V207.495H123.121V173.019H119.121ZM119.364 206.54L113.179 217.917L116.694 219.828L122.878 208.451L119.364 206.54ZM113.233 217.824C112.821 218.495 112.587 219.259 112.528 220.031L116.516 220.338C116.53 220.156 116.583 220.013 116.64 219.921L113.233 217.824ZM112.528 220.031C112.468 220.803 112.583 221.591 112.873 222.315L116.585 220.823C116.531 220.689 116.502 220.518 116.516 220.338L112.528 220.031ZM112.873 222.315C113.164 223.038 113.635 223.704 114.28 224.198L116.714 221.024C116.7 221.013 116.639 220.958 116.585 220.823L112.873 222.315ZM114.28 224.198C114.932 224.698 115.732 224.997 116.59 224.999L116.599 220.999C116.636 220.999 116.668 221.006 116.69 221.014C116.712 221.022 116.719 221.028 116.714 221.024L114.28 224.198ZM116.595 224.999H188.842V220.999H116.595V224.999ZM188.775 224.998C189.67 225.028 190.511 224.732 191.194 224.216L188.78 221.027C188.775 221.03 188.784 221.022 188.81 221.014C188.836 221.005 188.87 220.999 188.91 221L188.775 224.998ZM191.194 224.216C191.869 223.705 192.355 223.006 192.645 222.251L188.911 220.817C188.856 220.96 188.792 221.017 188.78 221.027L191.194 224.216ZM192.645 222.251C192.935 221.494 193.035 220.67 192.946 219.87L188.971 220.311C188.991 220.495 188.965 220.675 188.911 220.817L192.645 222.251ZM192.946 219.87C192.858 219.07 192.579 218.282 192.106 217.609L188.834 219.909C188.889 219.988 188.95 220.125 188.971 220.311L192.946 219.87ZM192.22 217.791L186.036 206.62L182.537 208.558L188.72 219.728L192.22 217.791Z" fill="#333638" mask="url(#path-7-inside-1_202_332)"/>
<path opacity="0.2" d="M189.638 219.314L189.645 219.324L189.652 219.334C189.812 219.562 189.927 219.861 189.965 220.2C190.002 220.539 189.958 220.88 189.844 221.175C189.731 221.471 189.561 221.689 189.383 221.824C189.209 221.956 189.033 222.005 188.876 222L188.859 221.999H188.842H116.596C116.443 221.998 116.274 221.947 116.105 221.818C115.934 221.686 115.77 221.478 115.657 221.196C115.544 220.915 115.493 220.589 115.519 220.261C115.544 219.933 115.642 219.634 115.787 219.398C115.788 219.397 115.788 219.397 115.788 219.397L121.9 209.545L121.9 209.545L121.903 209.54C122.022 209.345 122.165 209.207 122.305 209.121C122.444 209.036 122.581 209 122.708 209H182.314C182.438 209.001 182.57 209.034 182.703 209.112C182.839 209.191 182.977 209.318 183.097 209.497L189.638 219.314Z" fill="#333638" stroke="#333638" stroke-width="2"/>
<path d="M157.8 218.519H147.782L148.401 217.86L148.427 217.862L148.458 217.861L157.074 217.798L157.115 217.798L157.156 217.794C157.159 217.794 157.162 217.794 157.166 217.795L157.8 218.519ZM146.747 218.51C146.744 218.509 146.743 218.508 146.743 218.508C146.743 218.508 146.744 218.509 146.747 218.51Z" fill="#F2F2F3" stroke="#333638" stroke-width="2"/>
<rect opacity="0.2" x="123.1" y="207" width="59.65" height="1" fill="#333638"/>
<line x1="123" y1="207.5" x2="183" y2="207.5" stroke="#333638" stroke-dasharray="2 2"/>
<path d="M159.452 185.038C159.454 184.968 159.455 184.9 159.455 184.834C159.455 181.612 157.038 179 153.606 179C150.174 179 147.392 181.612 147.392 184.834C147.392 184.98 147.398 185.135 147.409 185.298C147.411 185.653 147.45 186.012 147.541 186.367C147.56 186.474 147.579 186.582 147.601 186.692C147.583 186.691 147.565 186.691 147.548 186.691C147.072 186.691 146.584 187.061 147.106 188.907C147.513 190.345 147.892 190.748 148.179 190.771C148.34 191.81 148.702 193.021 149.481 194.031C149.415 194.45 149.284 195.037 149.035 195.444C149.035 195.444 149.029 195.447 149.021 195.453C148.844 195.565 145.853 196.246 144.191 197.452C143.326 198.08 142.783 198.426 142.179 199.32C141.045 200.996 141.428 206.94 141.325 207H153.242H165.158C165.055 206.94 165.438 200.996 164.304 199.32C163.7 198.426 163.161 198.073 162.292 197.452C160.657 196.283 157.533 195.569 157.533 195.569C157.215 195.15 157.063 194.44 156.993 193.976C157.685 193.052 158.036 191.968 158.208 191.003C158.271 191.045 158.343 191.074 158.423 191.074C158.712 191.074 159.102 190.691 159.522 189.208C159.956 187.674 159.692 187.16 159.317 187.03C159.471 186.293 159.507 185.632 159.452 185.038Z" fill="#333638"/>
<rect opacity="0.5" x="123.1" y="173" width="59.65" height="35" fill="#F2F2F3"/>
<rect x="115" y="239" width="75" height="70" fill="#F9FAFA"/>
<rect x="115" y="239" width="75" height="70" stroke="#F9FAFA" stroke-width="10"/>
<path d="M169.928 258.547L169.929 253.094C169.929 251.398 168.926 249.943 167.498 249.323C167.022 249.115 166.498 249 165.948 249L152.442 249.001L138.909 249C138.36 249 137.835 249.115 137.359 249.323C135.931 249.943 134.929 251.398 134.929 253.094L134.93 258.547H134.933L134.929 294.906C134.929 297.166 136.708 298.998 138.903 298.998L145.894 298.999L145.893 299L152.437 298.999L158.964 299L158.963 298.999L165.954 298.998C168.149 298.998 169.929 297.166 169.929 294.906L169.924 258.547L169.928 258.547Z" fill="#F2F2F3"/>
<path d="M168.928 257.361L168.924 257.36L168.924 258.547L168.929 294.907V294.907C168.929 296.641 167.57 297.998 165.954 297.998H165.954L158.963 297.999L156.6 297.999L156.6 298L152.437 297.999H152.437L148.255 298L148.256 297.999L145.894 297.999L138.903 297.998H138.903C137.288 297.998 135.929 296.641 135.929 294.907C135.929 294.907 135.929 294.907 135.929 294.906L135.933 258.548L135.933 257.547H135.93L135.929 253.094L135.929 253.094C135.929 251.797 136.694 250.702 137.758 250.24L137.758 250.24L137.76 250.239C138.112 250.085 138.5 250 138.909 250C138.909 250 138.909 250 138.909 250L152.442 250.001H152.442L165.948 250C165.948 250 165.948 250 165.948 250C166.357 250 166.745 250.085 167.098 250.239L167.099 250.24C168.163 250.702 168.929 251.798 168.929 253.094C168.929 253.094 168.929 253.094 168.929 253.094L168.928 257.361Z" stroke="#333638" stroke-width="2"/>
<line x1="136.175" y1="292.5" x2="169.175" y2="292.5" stroke="#333638" stroke-dasharray="2 2"/>
<line x1="136.175" y1="255.5" x2="169.175" y2="255.5" stroke="#333638" stroke-dasharray="2 2"/>
<path d="M158.429 270.038C158.431 269.968 158.432 269.9 158.432 269.834C158.432 266.612 155.999 264 152.543 264C149.087 264 146.285 266.612 146.285 269.834C146.285 269.98 146.291 270.135 146.302 270.298C146.304 270.653 146.343 271.012 146.435 271.367C146.454 271.474 146.473 271.582 146.495 271.692C146.477 271.691 146.459 271.691 146.442 271.691C145.962 271.691 145.471 272.061 145.997 273.907C146.407 275.345 146.788 275.748 147.077 275.771C147.24 276.81 147.604 278.021 148.389 279.031C148.322 279.45 148.19 280.037 147.939 280.444C147.939 280.444 147.934 280.447 147.925 280.453C147.747 280.565 144.735 281.246 143.061 282.452C142.19 283.08 141.644 283.426 141.035 284.32C139.893 285.996 140.279 291.94 140.175 292H152.175H164.175C164.071 291.94 164.457 285.996 163.316 284.32C162.707 283.426 162.164 283.073 161.289 282.452C159.643 281.283 156.497 280.569 156.497 280.569C156.177 280.15 156.023 279.44 155.953 278.976C156.65 278.052 157.004 276.968 157.177 276.003C157.24 276.045 157.313 276.074 157.393 276.074C157.684 276.074 158.077 275.691 158.499 274.208C158.937 272.674 158.671 272.16 158.293 272.03C158.448 271.293 158.484 270.632 158.429 270.038Z" fill="#333638"/>
<rect opacity="0.2" x="136.929" y="292" width="31" height="5" fill="#333638"/>
<rect opacity="0.2" x="136.929" y="251" width="31" height="5" fill="#333638"/>
<rect opacity="0.5" x="136.929" y="255" width="31" height="38" fill="#F2F2F3"/>
<rect x="115" y="319" width="75" height="70" fill="#F9FAFA"/>
<rect x="115" y="319" width="75" height="70" stroke="#F9FAFA" stroke-width="10"/>
<path d="M125.895 373.966H144.791C144.668 374.353 144.468 374.799 144.143 375.242C143.445 376.195 142.077 377.264 139.293 377.611C139.236 377.618 139.181 377.629 139.128 377.645C137.858 377.871 136.884 378.973 136.884 380.313C136.884 381.818 138.113 383.023 139.61 383.023H166.071C167.568 383.023 168.797 381.818 168.797 380.313C168.797 379.054 167.938 378.006 166.782 377.696C166.69 377.653 166.589 377.624 166.483 377.611C163.699 377.264 162.331 376.195 161.633 375.242C161.308 374.799 161.108 374.353 160.985 373.966H179.881C182.511 373.966 184.674 371.932 184.836 369.347C184.844 369.296 184.849 369.244 184.849 369.191V361.835C184.849 361.818 184.848 361.8 184.847 361.783V330.461C184.847 327.44 182.371 325 179.345 325H126.432C123.406 325 120.929 327.44 120.929 330.461V362.618C120.929 362.635 120.93 362.649 120.93 362.66L120.931 362.682V368.622L120.93 368.638C120.929 368.653 120.929 368.679 120.929 368.709V369.037C120.929 369.067 120.929 369.093 120.93 369.109L120.931 369.125V369.191C120.931 369.228 120.933 369.266 120.937 369.302C121.076 371.909 123.25 373.966 125.895 373.966Z" fill="#F2F2F3" stroke="#333638" stroke-width="2" stroke-linejoin="round"/>
<path opacity="0.2" fill-rule="evenodd" clip-rule="evenodd" d="M183.847 330.461V362.574L183.849 362.572V369.255H183.843C183.762 371.353 182.019 373.03 179.881 373.03H159.793C159.828 373.912 160.324 377.915 166.36 378.667H166.071C167.024 378.667 167.797 379.432 167.797 380.377C167.797 381.321 167.024 382.087 166.071 382.087H139.61C138.657 382.087 137.884 381.321 137.884 380.377C137.884 379.432 138.657 378.667 139.61 378.667H139.416C145.452 377.915 145.947 373.912 145.983 373.03H125.895C123.757 373.03 122.014 371.353 121.933 369.255H121.931V369.171L121.93 369.149C121.929 369.133 121.929 369.117 121.929 369.101V368.773C121.929 368.758 121.929 368.742 121.93 368.727L121.931 368.703V363.41C121.931 363.401 121.93 363.392 121.93 363.383C121.93 363.373 121.929 363.364 121.929 363.355V330.461C121.929 328.001 123.95 326 126.432 326H179.345C181.828 326 183.847 328.001 183.847 330.461ZM180.025 368.368C180.46 368.368 181.493 367.344 181.493 366.913L181.493 329.787C181.493 329.357 180.459 328.333 180.024 328.333H125.752C125.317 328.333 124.284 329.357 124.284 329.787V366.913C124.284 367.344 125.317 368.368 125.752 368.368H180.025ZM154.9 371.334C155.256 371.334 155.566 371.131 155.724 370.833C155.796 370.697 155.837 370.542 155.837 370.377C155.837 370.212 155.796 370.056 155.724 369.92C155.566 369.622 155.256 369.419 154.9 369.419H151.414C151.155 369.419 150.921 369.526 150.751 369.7C150.701 369.751 150.656 369.81 150.619 369.872C150.529 370.019 150.477 370.191 150.477 370.377C150.477 370.906 150.896 371.334 151.414 371.334H154.9Z" fill="#333638"/>
<path d="M159.239 342.424C159.241 342.353 159.242 342.284 159.242 342.217C159.242 338.96 156.805 336.32 153.345 336.32C149.884 336.32 147.079 338.96 147.079 342.217C147.079 342.365 147.085 342.521 147.096 342.686C147.097 343.045 147.137 343.408 147.229 343.767C147.247 343.875 147.267 343.985 147.289 344.096C147.271 344.095 147.253 344.095 147.235 344.095C146.756 344.095 146.264 344.469 146.79 346.334C147.201 347.788 147.583 348.196 147.872 348.219C148.034 349.27 148.399 350.493 149.185 351.514C149.118 351.938 148.986 352.531 148.735 352.943C148.735 352.943 148.729 352.946 148.721 352.951C148.542 353.065 146.674 354.254 143.734 354.972C143.568 355.013 143.414 355.507 143.271 355.967C143.152 356.346 143.041 356.702 142.937 356.763C145.267 360.197 148.486 360.982 152.977 360.982C157.467 360.982 160.687 360.197 163.016 356.763C162.912 356.702 162.801 356.346 162.683 355.967C162.539 355.507 162.385 355.013 162.22 354.972C159.13 354.218 157.304 353.069 157.304 353.069C156.983 352.645 156.83 351.927 156.76 351.458C157.457 350.524 157.811 349.429 157.985 348.453C158.048 348.496 158.121 348.525 158.201 348.525C158.493 348.525 158.886 348.138 159.309 346.639C159.747 345.088 159.481 344.569 159.103 344.437C159.258 343.692 159.294 343.024 159.239 342.424Z" fill="#333638"/>
<rect opacity="0.5" x="125.614" y="329.686" width="54.5485" height="37.5942" fill="#F2F2F3"/>
<path fill-rule="evenodd" clip-rule="evenodd" d="M312.858 100C300.198 100 289.929 110.097 289.929 122.544C289.929 132.502 296.54 140.939 305.543 143.982C306.669 144.12 307.091 143.429 307.091 142.876C307.091 142.322 307.091 140.939 307.091 139.003C300.76 140.386 299.354 135.96 299.354 135.96C298.369 133.332 296.822 132.641 296.822 132.641C294.711 131.258 296.962 131.258 296.962 131.258C299.213 131.396 300.479 133.609 300.479 133.609C302.589 137.067 305.825 136.099 307.091 135.545C307.231 134.024 307.935 133.056 308.497 132.502C303.433 131.949 298.088 130.013 298.088 121.3C298.088 118.81 298.932 116.874 300.479 115.214C300.338 114.799 299.494 112.448 300.76 109.405C300.76 109.405 302.73 108.852 307.091 111.756C308.919 111.203 310.889 111.065 312.858 111.065C314.828 111.065 316.797 111.341 318.626 111.756C322.987 108.852 324.956 109.405 324.956 109.405C326.222 112.448 325.378 114.799 325.237 115.352C326.644 116.874 327.629 118.948 327.629 121.438C327.629 130.151 322.283 131.949 317.219 132.502C318.063 133.194 318.767 134.577 318.767 136.652C318.767 139.695 318.767 142.046 318.767 142.876C318.767 143.429 319.189 144.12 320.314 143.982C329.458 140.939 335.929 132.502 335.929 122.544C335.788 110.097 325.519 100 312.858 100Z" fill="#231E1B"/>
<path d="M343.445 144.135C342.525 144.135 341.71 143.965 341 143.625C340.3 143.275 339.75 142.75 339.35 142.05C338.95 141.34 338.75 140.445 338.75 139.365C338.75 138.505 338.875 137.71 339.125 136.98C339.385 136.24 339.75 135.595 340.22 135.045C340.7 134.495 341.285 134.065 341.975 133.755C342.675 133.445 343.46 133.29 344.33 133.29C344.93 133.29 345.5 133.375 346.04 133.545C346.58 133.715 347.05 133.96 347.45 134.28C347.6 134.39 347.69 134.52 347.72 134.67C347.76 134.81 347.755 134.95 347.705 135.09C347.665 135.23 347.595 135.35 347.495 135.45C347.405 135.54 347.29 135.595 347.15 135.615C347.02 135.625 346.885 135.585 346.745 135.495C346.355 135.195 345.96 134.985 345.56 134.865C345.16 134.735 344.73 134.67 344.27 134.67C343.46 134.67 342.765 134.875 342.185 135.285C341.605 135.685 341.16 136.24 340.85 136.95C340.55 137.65 340.4 138.445 340.4 139.335C340.4 140.145 340.525 140.8 340.775 141.3C341.025 141.8 341.385 142.17 341.855 142.41C342.335 142.64 342.915 142.755 343.595 142.755C344.015 142.755 344.41 142.7 344.78 142.59C345.15 142.47 345.525 142.275 345.905 142.005C346.065 141.905 346.215 141.865 346.355 141.885C346.495 141.895 346.61 141.95 346.7 142.05C346.8 142.14 346.865 142.255 346.895 142.395C346.925 142.525 346.915 142.66 346.865 142.8C346.815 142.94 346.715 143.06 346.565 143.16C346.115 143.49 345.62 143.735 345.08 143.895C344.54 144.055 343.995 144.135 343.445 144.135ZM349.292 144C349.022 144 348.822 143.925 348.692 143.775C348.572 143.625 348.532 143.415 348.572 143.145L350.027 134.025C350.067 133.785 350.152 133.61 350.282 133.5C350.422 133.38 350.612 133.32 350.852 133.32C351.112 133.32 351.302 133.395 351.422 133.545C351.542 133.695 351.582 133.9 351.542 134.16L350.207 142.665H354.722C354.952 142.665 355.127 142.715 355.247 142.815C355.377 142.905 355.442 143.035 355.442 143.205C355.442 143.465 355.367 143.665 355.217 143.805C355.077 143.935 354.887 144 354.647 144H349.292ZM357.508 144.105C357.238 144.105 357.048 144.025 356.938 143.865C356.828 143.705 356.793 143.48 356.833 143.19L358.288 134.085C358.328 133.835 358.418 133.645 358.558 133.515C358.698 133.385 358.898 133.32 359.158 133.32C359.418 133.32 359.603 133.4 359.713 133.56C359.823 133.71 359.853 133.935 359.803 134.235L358.363 143.325C358.323 143.575 358.233 143.77 358.093 143.91C357.963 144.04 357.768 144.105 357.508 144.105ZM361.642 144C361.352 144 361.137 143.925 360.997 143.775C360.867 143.615 360.822 143.39 360.862 143.1L362.287 134.19C362.327 133.93 362.422 133.74 362.572 133.62C362.722 133.49 362.922 133.425 363.172 133.425H368.602C368.812 133.425 368.972 133.47 369.082 133.56C369.202 133.64 369.262 133.76 369.262 133.92C369.262 134.17 369.192 134.36 369.052 134.49C368.922 134.62 368.747 134.685 368.527 134.685H363.697L363.172 138H367.567C367.777 138 367.937 138.045 368.047 138.135C368.157 138.215 368.212 138.34 368.212 138.51C368.212 138.75 368.142 138.935 368.002 139.065C367.872 139.195 367.697 139.26 367.477 139.26H362.977L362.407 142.74H367.117C367.327 142.74 367.487 142.785 367.597 142.875C367.717 142.955 367.777 143.08 367.777 143.25C367.777 143.49 367.707 143.675 367.567 143.805C367.437 143.935 367.262 144 367.042 144H361.642ZM370.295 144.105C370.075 144.105 369.905 144.03 369.785 143.88C369.675 143.73 369.64 143.52 369.68 143.25L371.15 133.98C371.19 133.75 371.275 133.585 371.405 133.485C371.535 133.375 371.69 133.32 371.87 133.32C372.07 133.32 372.22 133.36 372.32 133.44C372.43 133.51 372.535 133.63 372.635 133.8L377.435 142.05H377.105L378.365 134.025C378.405 133.785 378.495 133.61 378.635 133.5C378.775 133.38 378.965 133.32 379.205 133.32C379.425 133.32 379.585 133.395 379.685 133.545C379.785 133.695 379.815 133.9 379.775 134.16L378.305 143.43C378.275 143.66 378.205 143.83 378.095 143.94C377.985 144.05 377.835 144.105 377.645 144.105C377.445 144.105 377.285 144.065 377.165 143.985C377.045 143.905 376.93 143.775 376.82 143.595L372.02 135.375H372.35L371.09 143.4C371.06 143.64 370.98 143.82 370.85 143.94C370.73 144.05 370.545 144.105 370.295 144.105ZM384.067 144.105C383.817 144.105 383.632 144.025 383.512 143.865C383.402 143.705 383.367 143.485 383.407 143.205L384.742 134.73H381.697C381.477 134.73 381.302 134.685 381.172 134.595C381.052 134.495 380.992 134.36 380.992 134.19C380.992 133.95 381.062 133.765 381.202 133.635C381.352 133.495 381.542 133.425 381.772 133.425H389.557C389.787 133.425 389.962 133.47 390.082 133.56C390.202 133.65 390.262 133.78 390.262 133.95C390.262 134.2 390.192 134.395 390.052 134.535C389.912 134.665 389.722 134.73 389.482 134.73H386.302L384.937 143.34C384.897 143.59 384.802 143.78 384.652 143.91C384.512 144.04 384.317 144.105 384.067 144.105Z" fill="black"/>
<g opacity="0.8">
<rect x="524.929" y="162" width="144" height="223" rx="10" fill="#F8EDED"/>
<rect x="524.929" y="162" width="144" height="223" rx="10" stroke="#941807" stroke-width="3" stroke-linecap="round" stroke-dasharray="10 15"/>
<path d="M540.87 192.105C540.69 192.105 540.535 192.065 540.405 191.985C540.285 191.895 540.215 191.78 540.195 191.64C540.165 191.49 540.2 191.325 540.3 191.145L545.925 181.845C546.045 181.665 546.17 181.535 546.3 181.455C546.44 181.365 546.615 181.32 546.825 181.32C547.035 181.32 547.205 181.37 547.335 181.47C547.475 181.57 547.575 181.725 547.635 181.935L550.245 191.1C550.315 191.33 550.33 191.52 550.29 191.67C550.25 191.82 550.17 191.93 550.05 192C549.94 192.07 549.805 192.105 549.645 192.105C549.425 192.105 549.25 192.05 549.12 191.94C549 191.82 548.91 191.645 548.85 191.415L548.235 189.09L548.76 189.42H542.46L543.135 189.12L541.65 191.64C541.57 191.8 541.465 191.92 541.335 192C541.205 192.07 541.05 192.105 540.87 192.105ZM546.63 183.15L543.54 188.43L543.195 188.16H548.43L548.055 188.445L546.66 183.15H546.63ZM552.755 192C552.485 192 552.285 191.925 552.155 191.775C552.035 191.625 551.995 191.415 552.035 191.145L553.49 182.025C553.53 181.785 553.615 181.61 553.745 181.5C553.885 181.38 554.075 181.32 554.315 181.32C554.575 181.32 554.765 181.395 554.885 181.545C555.005 181.695 555.045 181.9 555.005 182.16L553.67 190.665H558.185C558.415 190.665 558.59 190.715 558.71 190.815C558.84 190.905 558.905 191.035 558.905 191.205C558.905 191.465 558.83 191.665 558.68 191.805C558.54 191.935 558.35 192 558.11 192H552.755ZM564.87 192.135C563.89 192.135 563.04 191.96 562.32 191.61C561.6 191.26 561.04 190.74 560.64 190.05C560.25 189.36 560.055 188.515 560.055 187.515C560.055 186.595 560.185 185.76 560.445 185.01C560.705 184.25 561.08 183.59 561.57 183.03C562.06 182.47 562.655 182.04 563.355 181.74C564.055 181.44 564.85 181.29 565.74 181.29C566.37 181.29 566.955 181.37 567.495 181.53C568.045 181.69 568.515 181.92 568.905 182.22C569.065 182.33 569.165 182.46 569.205 182.61C569.255 182.76 569.26 182.91 569.22 183.06C569.18 183.2 569.11 183.32 569.01 183.42C568.91 183.52 568.79 183.58 568.65 183.6C568.51 183.61 568.36 183.56 568.2 183.45C567.85 183.17 567.46 182.97 567.03 182.85C566.61 182.72 566.15 182.655 565.65 182.655C564.82 182.655 564.11 182.86 563.52 183.27C562.93 183.68 562.475 184.245 562.155 184.965C561.845 185.685 561.69 186.515 561.69 187.455C561.69 188.585 561.98 189.425 562.56 189.975C563.14 190.515 563.975 190.785 565.065 190.785C565.515 190.785 565.935 190.745 566.325 190.665C566.725 190.585 567.105 190.48 567.465 190.35L567.045 191.07L567.615 187.575H565.68C565.48 187.575 565.32 187.53 565.2 187.44C565.08 187.35 565.02 187.225 565.02 187.065C565.02 186.855 565.085 186.695 565.215 186.585C565.355 186.465 565.535 186.405 565.755 186.405H568.335C568.575 186.405 568.75 186.47 568.86 186.6C568.98 186.73 569.02 186.915 568.98 187.155L568.395 190.935C568.355 191.125 568.29 191.28 568.2 191.4C568.12 191.51 567.99 191.6 567.81 191.67C567.42 191.82 566.96 191.935 566.43 192.015C565.9 192.095 565.38 192.135 564.87 192.135ZM575.542 192.135C574.632 192.135 573.837 191.96 573.157 191.61C572.487 191.26 571.962 190.74 571.582 190.05C571.212 189.36 571.027 188.53 571.027 187.56C571.027 186.66 571.147 185.83 571.387 185.07C571.637 184.31 571.997 183.645 572.467 183.075C572.937 182.505 573.507 182.065 574.177 181.755C574.847 181.445 575.612 181.29 576.472 181.29C577.392 181.29 578.187 181.465 578.857 181.815C579.537 182.165 580.062 182.685 580.432 183.375C580.802 184.055 580.987 184.88 580.987 185.85C580.987 186.76 580.862 187.595 580.612 188.355C580.372 189.115 580.017 189.78 579.547 190.35C579.077 190.92 578.507 191.36 577.837 191.67C577.167 191.98 576.402 192.135 575.542 192.135ZM575.572 190.785C576.392 190.785 577.082 190.575 577.642 190.155C578.202 189.725 578.627 189.14 578.917 188.4C579.207 187.66 579.352 186.82 579.352 185.88C579.352 184.78 579.092 183.965 578.572 183.435C578.062 182.905 577.347 182.64 576.427 182.64C575.617 182.64 574.932 182.85 574.372 183.27C573.812 183.69 573.387 184.27 573.097 185.01C572.807 185.75 572.662 186.59 572.662 187.53C572.662 188.64 572.922 189.46 573.442 189.99C573.962 190.52 574.672 190.785 575.572 190.785ZM582.987 192.105C582.747 192.105 582.567 192.025 582.447 191.865C582.337 191.705 582.307 191.48 582.357 191.19L583.782 182.205C583.822 181.945 583.917 181.75 584.067 181.62C584.217 181.49 584.422 181.425 584.682 181.425H587.832C588.982 181.425 589.852 181.685 590.442 182.205C591.032 182.715 591.327 183.415 591.327 184.305C591.327 185.045 591.157 185.66 590.817 186.15C590.477 186.64 590.012 187.005 589.422 187.245C588.832 187.485 588.157 187.6 587.397 187.59V187.38H587.712C588.162 187.38 588.532 187.51 588.822 187.77C589.112 188.03 589.347 188.39 589.527 188.85L590.382 191.1C590.462 191.31 590.492 191.49 590.472 191.64C590.452 191.79 590.382 191.905 590.262 191.985C590.152 192.065 589.987 192.105 589.767 192.105C589.557 192.105 589.387 192.055 589.257 191.955C589.137 191.845 589.032 191.67 588.942 191.43L587.922 188.745C587.772 188.345 587.572 188.06 587.322 187.89C587.082 187.72 586.737 187.635 586.287 187.635H584.457L583.887 191.34C583.847 191.59 583.752 191.78 583.602 191.91C583.452 192.04 583.247 192.105 582.987 192.105ZM584.652 186.465H587.442C588.192 186.465 588.772 186.29 589.182 185.94C589.602 185.58 589.812 185.075 589.812 184.425C589.812 183.835 589.637 183.395 589.287 183.105C588.937 182.815 588.387 182.67 587.637 182.67H585.252L584.652 186.465ZM593.169 192.105C592.899 192.105 592.709 192.025 592.599 191.865C592.489 191.705 592.454 191.48 592.494 191.19L593.949 182.085C593.989 181.835 594.079 181.645 594.219 181.515C594.359 181.385 594.559 181.32 594.819 181.32C595.079 181.32 595.264 181.4 595.374 181.56C595.484 181.71 595.514 181.935 595.464 182.235L594.024 191.325C593.984 191.575 593.894 191.77 593.754 191.91C593.624 192.04 593.429 192.105 593.169 192.105ZM599.747 192.105C599.497 192.105 599.312 192.025 599.192 191.865C599.082 191.705 599.047 191.485 599.087 191.205L600.422 182.73H597.377C597.157 182.73 596.982 182.685 596.852 182.595C596.732 182.495 596.672 182.36 596.672 182.19C596.672 181.95 596.742 181.765 596.882 181.635C597.032 181.495 597.222 181.425 597.452 181.425H605.237C605.467 181.425 605.642 181.47 605.762 181.56C605.882 181.65 605.942 181.78 605.942 181.95C605.942 182.2 605.872 182.395 605.732 182.535C605.592 182.665 605.402 182.73 605.162 182.73H601.982L600.617 191.34C600.577 191.59 600.482 191.78 600.332 191.91C600.192 192.04 599.997 192.105 599.747 192.105ZM606.337 192.105C606.077 192.105 605.892 192.025 605.782 191.865C605.672 191.705 605.637 191.48 605.677 191.19L607.132 182.085C607.172 181.835 607.262 181.645 607.402 181.515C607.542 181.385 607.742 181.32 608.002 181.32C608.262 181.32 608.447 181.4 608.557 181.56C608.667 181.72 608.697 181.945 608.647 182.235L608.047 185.985H613.987L614.602 182.085C614.642 181.835 614.732 181.645 614.872 181.515C615.012 181.385 615.212 181.32 615.472 181.32C615.732 181.32 615.917 181.4 616.027 181.56C616.137 181.71 616.167 181.935 616.117 182.235L614.677 191.325C614.647 191.575 614.562 191.77 614.422 191.91C614.282 192.04 614.082 192.105 613.822 192.105C613.552 192.105 613.362 192.025 613.252 191.865C613.142 191.705 613.112 191.48 613.162 191.19L613.777 187.29H607.852L607.207 191.325C607.167 191.575 607.077 191.77 606.937 191.91C606.797 192.04 606.597 192.105 606.337 192.105ZM617.836 192.06C617.596 192.06 617.421 191.99 617.311 191.85C617.211 191.71 617.176 191.515 617.206 191.265L618.676 181.98C618.716 181.75 618.796 181.585 618.916 181.485C619.046 181.375 619.221 181.32 619.441 181.32C619.641 181.32 619.796 181.365 619.906 181.455C620.016 181.535 620.111 181.68 620.191 181.89L622.876 189.165H622.456L627.571 181.77C627.691 181.61 627.811 181.495 627.931 181.425C628.061 181.355 628.226 181.32 628.426 181.32C628.656 181.32 628.826 181.39 628.936 181.53C629.046 181.67 629.081 181.86 629.041 182.1L627.556 191.385C627.526 191.605 627.451 191.775 627.331 191.895C627.211 192.005 627.036 192.06 626.806 192.06C626.576 192.06 626.406 191.99 626.296 191.85C626.186 191.71 626.146 191.515 626.176 191.265L627.391 183.585H627.736L623.206 190.125C623.116 190.265 623.021 190.365 622.921 190.425C622.831 190.475 622.716 190.5 622.576 190.5C622.406 190.5 622.271 190.46 622.171 190.38C622.081 190.3 622.006 190.18 621.946 190.02L619.501 183.615H619.816L618.586 191.385C618.556 191.605 618.476 191.775 618.346 191.895C618.226 192.005 618.056 192.06 617.836 192.06ZM633.816 192.135C633.376 192.135 632.941 192.105 632.511 192.045C632.081 191.985 631.666 191.885 631.266 191.745C630.866 191.595 630.496 191.405 630.156 191.175C630.006 191.085 629.901 190.97 629.841 190.83C629.791 190.69 629.781 190.555 629.811 190.425C629.841 190.285 629.901 190.165 629.991 190.065C630.081 189.965 630.196 189.905 630.336 189.885C630.486 189.865 630.646 189.905 630.816 190.005C631.296 190.305 631.796 190.515 632.316 190.635C632.846 190.755 633.391 190.815 633.951 190.815C634.701 190.815 635.301 190.665 635.751 190.365C636.211 190.055 636.441 189.64 636.441 189.12C636.441 188.75 636.306 188.435 636.036 188.175C635.766 187.915 635.301 187.715 634.641 187.575L633.051 187.185C632.341 187.015 631.771 186.72 631.341 186.3C630.921 185.87 630.711 185.28 630.711 184.53C630.711 184.03 630.816 183.58 631.026 183.18C631.236 182.78 631.531 182.44 631.911 182.16C632.291 181.87 632.726 181.655 633.216 181.515C633.706 181.365 634.226 181.29 634.776 181.29C635.336 181.29 635.916 181.37 636.516 181.53C637.126 181.68 637.666 181.935 638.136 182.295C638.276 182.395 638.366 182.515 638.406 182.655C638.456 182.795 638.466 182.935 638.436 183.075C638.406 183.205 638.346 183.315 638.256 183.405C638.166 183.485 638.046 183.53 637.896 183.54C637.756 183.55 637.586 183.495 637.386 183.375C637.016 183.115 636.596 182.925 636.126 182.805C635.666 182.675 635.206 182.61 634.746 182.61C634.266 182.61 633.836 182.685 633.456 182.835C633.086 182.985 632.791 183.195 632.571 183.465C632.361 183.725 632.256 184.04 632.256 184.41C632.256 184.86 632.376 185.195 632.616 185.415C632.856 185.635 633.211 185.805 633.681 185.925L635.271 186.315C636.191 186.525 636.871 186.855 637.311 187.305C637.761 187.755 637.986 188.3 637.986 188.94C637.986 189.47 637.876 189.935 637.656 190.335C637.436 190.735 637.131 191.07 636.741 191.34C636.361 191.6 635.921 191.8 635.421 191.94C634.921 192.07 634.386 192.135 633.816 192.135Z" fill="#941807"/>
</g>
<g opacity="0.8">
<rect x="317.929" y="162" width="144" height="223" rx="10" fill="#EDF2F8"/>
<rect x="317.929" y="162" width="144" height="223" rx="10" stroke="#074994" stroke-width="3" stroke-linecap="round" stroke-dasharray="10 15"/>
<path d="M338.845 192.135C337.865 192.135 337.015 191.96 336.295 191.61C335.575 191.26 335.015 190.74 334.615 190.05C334.225 189.36 334.03 188.515 334.03 187.515C334.03 186.595 334.16 185.76 334.42 185.01C334.68 184.25 335.055 183.59 335.545 183.03C336.035 182.47 336.63 182.04 337.33 181.74C338.03 181.44 338.825 181.29 339.715 181.29C340.345 181.29 340.93 181.37 341.47 181.53C342.02 181.69 342.49 181.92 342.88 182.22C343.04 182.33 343.14 182.46 343.18 182.61C343.23 182.76 343.235 182.91 343.195 183.06C343.155 183.2 343.085 183.32 342.985 183.42C342.885 183.52 342.765 183.58 342.625 183.6C342.485 183.61 342.335 183.56 342.175 183.45C341.825 183.17 341.435 182.97 341.005 182.85C340.585 182.72 340.125 182.655 339.625 182.655C338.795 182.655 338.085 182.86 337.495 183.27C336.905 183.68 336.45 184.245 336.13 184.965C335.82 185.685 335.665 186.515 335.665 187.455C335.665 188.585 335.955 189.425 336.535 189.975C337.115 190.515 337.95 190.785 339.04 190.785C339.49 190.785 339.91 190.745 340.3 190.665C340.7 190.585 341.08 190.48 341.44 190.35L341.02 191.07L341.59 187.575H339.655C339.455 187.575 339.295 187.53 339.175 187.44C339.055 187.35 338.995 187.225 338.995 187.065C338.995 186.855 339.06 186.695 339.19 186.585C339.33 186.465 339.51 186.405 339.73 186.405H342.31C342.55 186.405 342.725 186.47 342.835 186.6C342.955 186.73 342.995 186.915 342.955 187.155L342.37 190.935C342.33 191.125 342.265 191.28 342.175 191.4C342.095 191.51 341.965 191.6 341.785 191.67C341.395 191.82 340.935 191.935 340.405 192.015C339.875 192.095 339.355 192.135 338.845 192.135ZM348.977 192.135C348.307 192.135 347.712 192.04 347.192 191.85C346.672 191.66 346.242 191.37 345.902 190.98C345.562 190.59 345.327 190.105 345.197 189.525C345.077 188.935 345.082 188.25 345.212 187.47L346.067 182.04C346.107 181.79 346.197 181.61 346.337 181.5C346.487 181.38 346.682 181.32 346.922 181.32C347.182 181.32 347.367 181.395 347.477 181.545C347.597 181.685 347.637 181.895 347.597 182.175L346.742 187.605C346.572 188.655 346.682 189.45 347.072 189.99C347.472 190.52 348.137 190.785 349.067 190.785C349.977 190.785 350.692 190.555 351.212 190.095C351.742 189.635 352.087 188.895 352.247 187.875L353.177 182.04C353.217 181.79 353.307 181.61 353.447 181.5C353.597 181.38 353.792 181.32 354.032 181.32C354.282 181.32 354.462 181.395 354.572 181.545C354.692 181.685 354.732 181.895 354.692 182.175L353.792 187.89C353.642 188.82 353.372 189.6 352.982 190.23C352.592 190.86 352.067 191.335 351.407 191.655C350.747 191.975 349.937 192.135 348.977 192.135ZM356.363 192.105C356.093 192.105 355.903 192.025 355.793 191.865C355.683 191.705 355.648 191.48 355.688 191.19L357.143 182.085C357.183 181.835 357.273 181.645 357.413 181.515C357.553 181.385 357.753 181.32 358.013 181.32C358.273 181.32 358.458 181.4 358.568 181.56C358.678 181.71 358.708 181.935 358.658 182.235L357.218 191.325C357.178 191.575 357.088 191.77 356.948 191.91C356.818 192.04 356.623 192.105 356.363 192.105Z" fill="#074994"/>
</g>
<rect x="363.929" y="169" width="70" height="58" fill="#F9FAFA"/>
<rect x="363.929" y="169" width="70" height="58" stroke="#F9FAFA" stroke-width="10"/>
<path d="M427.882 217.409V217.41C427.882 219.397 426.278 221 424.241 221H373.57C371.533 221 369.929 219.397 369.929 217.41V186H427.927L427.882 217.409Z" fill="#F2F2F3" stroke="#333638" stroke-width="2"/>
<path d="M427.882 178.595V178.59C427.882 176.603 426.278 175 424.241 175H373.57C371.533 175 369.929 176.603 369.929 178.59V186H427.923L427.882 178.595Z" stroke="#333638" stroke-width="2"/>
<ellipse cx="377.064" cy="180.5" rx="1.52542" ry="1.5" fill="#333638"/>
<ellipse cx="383.166" cy="180.5" rx="1.52542" ry="1.5" fill="#333638"/>
<ellipse cx="389.268" cy="180.5" rx="1.52542" ry="1.5" fill="#333638"/>
<path d="M390.699 190H391.903V191.158H393.013V190H394.218V193.504H393.013V192.336H391.914V193.504H390.699V190ZM395.81 191.168H394.747V190H398.083V191.168H397.015V193.504H395.81V191.168ZM398.612 190H399.874L400.649 191.234L401.424 190H402.686V193.504H401.482V191.767L400.639 193.027L399.795 191.767V193.504H398.612V190ZM403.283 190H404.488V192.346H406.195V193.504H403.283" fill="black"/>
<path d="M390.657 213.918L388.929 195.109H407.929L406.2 213.908L398.413 216" fill="#E44D26"/>
<path d="M398.429 214.4V196.652H406.195L404.713 212.699" fill="#F16529"/>
<path d="M392.458 198.953H398.429V201.258H395.066L395.286 203.62H398.429V205.92H393.108L392.458 198.953ZM393.212 207.078H395.601L395.768 208.921L398.429 209.612V212.019L393.548 210.698" fill="#EBEBEB"/>
<path d="M404.378 198.953H398.418V201.258H404.158L404.378 198.953ZM403.943 203.62H398.418V205.925H401.351L401.073 208.921L398.418 209.612V212.009L403.289 210.698" fill="white"/>
<path opacity="0.5" d="M427.882 217.409V217.41C427.882 219.397 426.278 221 424.241 221H373.57C371.533 221 369.929 219.397 369.929 217.41V186H427.927L427.882 217.409Z" fill="#F3D7D0" stroke="#333638" stroke-width="2"/>
<rect x="363.929" y="245" width="70" height="58" fill="#F9FAFA"/>
<rect x="363.929" y="245" width="70" height="58" stroke="#F9FAFA" stroke-width="10"/>
<path d="M427.882 293.409V293.41C427.882 295.397 426.278 297 424.241 297H373.57C371.533 297 369.929 295.397 369.929 293.41V262H427.927L427.882 293.409Z" fill="#F2F2F3" stroke="#333638" stroke-width="2"/>
<path d="M427.882 254.595V254.59C427.882 252.603 426.278 251 424.241 251H373.57C371.533 251 369.929 252.603 369.929 254.59V262H427.923L427.882 254.595Z" stroke="#333638" stroke-width="2"/>
<ellipse cx="377.064" cy="256.5" rx="1.52542" ry="1.5" fill="#333638"/>
<ellipse cx="383.166" cy="256.5" rx="1.52542" ry="1.5" fill="#333638"/>
<ellipse cx="389.268" cy="256.5" rx="1.52542" ry="1.5" fill="#333638"/>
<path d="M407.929 271.11L406.198 289.909L398.417 292L390.658 289.912L388.929 271.11H407.929Z" fill="#264DE4"/>
<path d="M404.716 288.712L406.195 272.647H398.429V290.402L404.716 288.712Z" fill="#2965F1"/>
<path d="M392.893 279.62L393.106 281.926H398.429V279.62H392.893Z" fill="#EBEBEB"/>
<path d="M398.429 274.953H398.42H392.464L392.68 277.259H398.429V274.953Z" fill="#EBEBEB"/>
<path d="M398.429 288.009V285.609L398.418 285.612L395.769 284.919L395.6 283.079H393.212L393.545 286.7L398.418 288.011L398.429 288.009Z" fill="#EBEBEB"/>
<path d="M393.4 266H396.281V267.168H394.605V268.336H396.281V269.504H393.4V266Z" fill="black"/>
<path d="M396.857 266H399.738V267.016H398.062V267.219H399.738V269.555H396.857V268.488H398.533V268.285H396.857V266Z" fill="black"/>
<path d="M400.314 266H403.195V267.016H401.519V267.219H403.195V269.555H400.314V268.488H401.99V268.285H400.314V266Z" fill="black"/>
<path d="M401.349 281.926L401.073 284.917L398.42 285.611V288.01L403.297 286.7L403.891 280.24L403.949 279.62L404.379 274.953H398.42L398.42 277.259H401.772L401.556 279.62H398.42V281.926H401.349Z" fill="white"/>
<path opacity="0.5" d="M427.882 293.409V293.41C427.882 295.397 426.278 297 424.241 297H373.57C371.533 297 369.929 295.397 369.929 293.41V262H427.927L427.882 293.409Z" fill="#CDD1E7" stroke="#333638" stroke-width="2"/>
<rect x="363.929" y="321" width="70" height="58" fill="#F9FAFA"/>
<rect x="363.929" y="321" width="70" height="58" stroke="#F9FAFA" stroke-width="10"/>
<path d="M427.882 369.409V369.41C427.882 371.397 426.278 373 424.241 373H373.57C371.533 373 369.929 371.397 369.929 369.41V338H427.927L427.882 369.409Z" fill="#F2F2F3" stroke="#333638" stroke-width="2"/>
<path d="M427.882 330.595V330.59C427.882 328.603 426.278 327 424.241 327H373.57C371.533 327 369.929 328.603 369.929 330.59V338H427.923L427.882 330.595Z" fill="#EEF6F9" stroke="#333638" stroke-width="2"/>
<ellipse cx="377.064" cy="332.5" rx="1.52542" ry="1.5" fill="#333638"/>
<ellipse cx="383.166" cy="332.5" rx="1.52542" ry="1.5" fill="#333638"/>
<ellipse cx="389.268" cy="332.5" rx="1.52542" ry="1.5" fill="#333638"/>
<path d="M398.828 341C391.72 341 392.163 344.099 392.163 344.099L392.171 347.309H398.954V348.273H389.477C389.477 348.273 384.929 347.754 384.929 354.964C384.929 362.174 388.899 361.918 388.899 361.918H391.268V358.572C391.268 358.572 391.14 354.582 395.175 354.582C399.209 354.582 401.902 354.582 401.902 354.582C401.902 354.582 405.682 354.643 405.682 350.909C405.682 347.176 405.682 344.736 405.682 344.736C405.682 344.736 406.256 341 398.828 341ZM395.087 343.159C395.762 343.159 396.308 343.707 396.308 344.385C396.308 345.064 395.762 345.612 395.087 345.612C394.413 345.612 393.867 345.064 393.867 344.385C393.867 343.707 394.413 343.159 395.087 343.159Z" fill="url(#paint0_linear_202_332)"/>
<path d="M399.03 369C406.138 369 405.694 365.901 405.694 365.901L405.686 362.691H398.903V361.727H408.38C408.38 361.727 412.929 362.246 412.929 355.036C412.929 347.826 408.959 348.082 408.959 348.082H406.589V351.428C406.589 351.428 406.717 355.418 402.683 355.418C398.648 355.418 395.955 355.418 395.955 355.418C395.955 355.418 392.175 355.357 392.175 359.091C392.175 362.824 392.175 365.264 392.175 365.264C392.175 365.264 391.601 369 399.03 369ZM402.77 366.841C402.095 366.841 401.549 366.293 401.549 365.615C401.549 364.936 402.095 364.388 402.77 364.388C403.445 364.388 403.99 364.936 403.99 365.615C403.99 366.293 403.445 366.841 402.77 366.841Z" fill="url(#paint1_linear_202_332)"/>
<path opacity="0.5" d="M427.882 369.409V369.41C427.882 371.397 426.278 373 424.241 373H373.57C371.533 373 369.929 371.397 369.929 369.41V338H427.927L427.882 369.409Z" fill="#EBFAFF" stroke="#333638" stroke-width="2"/>
<rect x="561.929" y="245" width="70" height="58" fill="#F9FAFA"/>
<rect x="561.929" y="245" width="70" height="58" stroke="#F9FAFA" stroke-width="10"/>
<path d="M625.882 293.409V293.41C625.882 295.397 624.278 297 622.241 297H571.57C569.533 297 567.929 295.397 567.929 293.41V262H625.927L625.882 293.409Z" fill="#F2F2F3" stroke="#333638" stroke-width="2"/>
<path d="M625.882 254.595V254.59C625.882 252.603 624.278 251 622.241 251H571.57C569.533 251 567.929 252.603 567.929 254.59V262H625.923L625.882 254.595Z" fill="#EEF6F9" stroke="#333638" stroke-width="2"/>
<ellipse cx="575.064" cy="256.5" rx="1.52542" ry="1.5" fill="#333638"/>
<ellipse cx="581.166" cy="256.5" rx="1.52542" ry="1.5" fill="#333638"/>
<ellipse cx="587.268" cy="256.5" rx="1.52542" ry="1.5" fill="#333638"/>
<path d="M596.828 265C589.72 265 590.163 268.099 590.163 268.099L590.171 271.309H596.954V272.273H587.477C587.477 272.273 582.929 271.754 582.929 278.964C582.929 286.174 586.899 285.918 586.899 285.918H589.268V282.572C589.268 282.572 589.14 278.582 593.175 278.582C597.209 278.582 599.902 278.582 599.902 278.582C599.902 278.582 603.682 278.643 603.682 274.909C603.682 271.176 603.682 268.736 603.682 268.736C603.682 268.736 604.256 265 596.828 265ZM593.087 267.159C593.762 267.159 594.308 267.707 594.308 268.385C594.308 269.064 593.762 269.612 593.087 269.612C592.413 269.612 591.867 269.064 591.867 268.385C591.867 267.707 592.413 267.159 593.087 267.159Z" fill="url(#paint2_linear_202_332)"/>
<path d="M597.03 293C604.138 293 603.694 289.901 603.694 289.901L603.686 286.691H596.903V285.727H606.38C606.38 285.727 610.929 286.246 610.929 279.036C610.929 271.826 606.959 272.082 606.959 272.082H604.589V275.428C604.589 275.428 604.717 279.418 600.683 279.418C596.648 279.418 593.955 279.418 593.955 279.418C593.955 279.418 590.175 279.357 590.175 283.091C590.175 286.824 590.175 289.264 590.175 289.264C590.175 289.264 589.601 293 597.03 293ZM600.77 290.841C600.095 290.841 599.549 290.293 599.549 289.615C599.549 288.936 600.095 288.388 600.77 288.388C601.445 288.388 601.99 288.936 601.99 289.615C601.99 290.293 601.445 290.841 600.77 290.841Z" fill="url(#paint3_linear_202_332)"/>
<path opacity="0.5" d="M625.882 293.409V293.41C625.882 295.397 624.278 297 622.241 297H571.57C569.533 297 567.929 295.397 567.929 293.41V262H625.927L625.882 293.409Z" fill="#EBFAFF" stroke="#333638" stroke-width="2"/>
<defs>
<linearGradient id="paint0_linear_202_332" x1="388.557" y1="344.276" x2="407.186" y2="363.008" gradientUnits="userSpaceOnUse">
<stop stop-color="#387EB8"/>
<stop offset="1" stop-color="#366994"/>
</linearGradient>
<linearGradient id="paint1_linear_202_332" x1="396.136" y1="352.331" x2="411.08" y2="366.573" gradientUnits="userSpaceOnUse">
<stop stop-color="#FFE052"/>
<stop offset="1" stop-color="#FFC331"/>
</linearGradient>
<linearGradient id="paint2_linear_202_332" x1="586.557" y1="268.276" x2="605.186" y2="287.008" gradientUnits="userSpaceOnUse">
<stop stop-color="#387EB8"/>
<stop offset="1" stop-color="#366994"/>
</linearGradient>
<linearGradient id="paint3_linear_202_332" x1="594.136" y1="276.331" x2="609.08" y2="290.573" gradientUnits="userSpaceOnUse">
<stop stop-color="#FFE052"/>
<stop offset="1" stop-color="#FFC331"/>
</linearGradient>
</defs>
</svg>
